<?xml version="1.0" standalone="no"?>
<!DOCTYPE svg PUBLIC "-//W3C//DTD SVG 20010904//EN"
 "http://www.w3.org/TR/2001/REC-SVG-20010904/DTD/svg10.dtd">
<svg version="1.0" xmlns="http://www.w3.org/2000/svg"
 width="67.000000pt" height="67.000000pt" viewBox="0 0 67.000000 67.000000"
 preserveAspectRatio="xMidYMid meet">

<g transform="translate(0.000000,67.000000) scale(0.100000,-0.100000)"
fill="#000000" stroke="none">
<path d="M257 660 c-98 -25 -182 -95 -225 -189 -38 -80 -38 -192 0 -272 33
-72 94 -134 167 -168 46 -21 70 -26 136 -26 135 0 238 64 297 183 29 59 33 76
33 147 0 97 -29 169 -95 235 -77 77 -211 115 -313 90z m195 -72 c94 -40 161
-146 161 -253 0 -200 -207 -335 -390 -255 -207 89 -223 381 -28 496 79 46 166
50 257 12z"/>
<path d="M315 518 c-3 -8 -4 -70 -3 -139 3 -116 4 -124 23 -124 19 0 20 7 20
135 0 120 -2 135 -18 138 -9 2 -19 -3 -22 -10z"/>
<path d="M313 174 c-3 -8 -1 -20 5 -26 16 -16 42 -2 42 22 0 24 -38 28 -47 4z"/>
</g>
</svg>
